<?xml version="1.0" encoding="UTF-8"?> <svg xmlns="http://www.w3.org/2000/svg" width="804" height="235" viewBox="0 0 804 235" fill="none"><path fill-rule="evenodd" clip-rule="evenodd" d="M98.7233 24.602C95.8181 22.0102 93.9741 18.2473 93.9741 14.0962C93.9741 6.37682 100.351 0 108.07 0C115.79 0 122.167 6.37682 122.167 14.0962C122.167 18.2423 120.327 22.0012 117.428 24.5927L199.634 206.62C200.419 206.482 201.226 206.41 202.048 206.41C209.767 206.41 216.144 212.787 216.144 220.506C216.144 228.225 209.767 234.602 202.048 234.602C196.353 234.602 191.389 231.131 189.177 226.211H26.9676C24.7555 231.131 19.7912 234.602 14.0962 234.602C6.37682 234.602 0 228.225 0 220.506C0 212.787 6.37682 206.41 14.0962 206.41C14.9124 206.41 15.7135 206.481 16.4937 206.618L98.7233 24.602ZM112.1 140.888V33.1813L152.891 123.504L119.379 146.026C117.582 143.611 115.035 141.778 112.1 140.888ZM122.166 154.263L156.393 131.26L192.131 210.393L119.968 161.896C121.358 159.715 122.167 157.137 122.167 154.388C122.167 154.362 122.167 154.336 122.166 154.31C122.166 154.294 122.166 154.278 122.166 154.263ZM93.9749 154.537C94.0028 157.15 94.7605 159.604 96.0516 161.703L24.1666 210.013L59.6504 131.47L93.9749 154.537ZM102.645 167.382L27.8901 217.621C27.9043 217.687 27.9179 217.754 27.9311 217.821H103.709V167.782C103.348 167.663 102.993 167.529 102.645 167.382ZM96.6266 146.21C98.3639 143.797 100.84 141.942 103.709 140.994V33.9458L63.154 123.715L96.6266 146.21ZM113.242 167.486L188.14 217.821H112.1V167.888C112.488 167.77 112.869 167.636 113.242 167.486ZM248.264 226H238.091V5.68999H248.264V226ZM298.725 64.11H308.898V115.264H344.357V124.274H308.898V226H298.725V124.274H274.02V115.264H298.725V64.11ZM360.011 146.944C356.911 154.114 355.361 161.767 355.361 169.905C355.361 177.85 356.814 185.407 359.72 192.576C362.82 199.551 366.986 205.655 372.218 210.887C377.45 216.118 383.553 220.284 390.529 223.384C397.698 226.485 405.449 228.035 413.781 228.035C425.988 228.035 436.451 225.031 445.17 219.025C453.89 213.018 459.896 205.752 463.19 197.226V226H473.072V113.52H464.353C463.966 118.17 463.675 122.917 463.481 127.762C463.287 132.606 463.19 137.45 463.19 142.294C461.447 138.031 458.928 134.059 455.634 130.377C452.533 126.502 448.852 123.111 444.589 120.205C440.326 117.298 435.579 115.07 430.347 113.52C425.116 111.776 419.593 110.904 413.781 110.904C405.642 110.904 397.989 112.454 390.819 115.554C383.844 118.655 377.74 122.917 372.509 128.343C367.277 133.575 363.111 139.775 360.011 146.944ZM369.021 188.797C366.502 182.791 365.243 176.396 365.243 169.615C365.243 162.833 366.502 156.439 369.021 150.432C371.54 144.425 374.931 139.291 379.194 135.028C383.65 130.571 388.882 127.083 394.888 124.564C400.895 122.046 407.289 120.786 414.071 120.786C420.853 120.786 427.247 122.046 433.254 124.564C439.261 127.083 444.492 130.571 448.949 135.028C453.405 139.291 456.893 144.425 459.412 150.432C461.931 156.439 463.19 162.833 463.19 169.615C463.19 176.396 461.931 182.791 459.412 188.797C456.893 194.61 453.405 199.745 448.949 204.202C444.492 208.464 439.261 211.855 433.254 214.374C427.247 216.893 420.853 218.153 414.071 218.153C407.289 218.153 400.895 216.893 394.888 214.374C388.882 211.855 383.65 208.464 379.194 204.202C374.931 199.745 371.54 194.61 369.021 188.797ZM569.472 123.111C563.465 123.305 557.652 124.371 552.033 126.308C546.608 128.246 541.763 131.056 537.501 134.737C533.238 138.225 529.847 142.488 527.328 147.526C524.809 152.37 523.55 157.795 523.55 163.802V226H513.668V113.52H522.096V119.042C522.29 121.949 522.387 125.049 522.387 128.343V137.644C522.581 140.356 522.678 142.003 522.678 142.585C527.134 132.896 533.819 125.34 542.732 119.914C551.839 114.295 561.334 111.389 571.216 111.195L569.472 123.111ZM649.119 76.6078C647.957 77.7704 647.375 79.1267 647.375 80.6769C647.375 82.227 647.957 83.5833 649.119 84.7459C650.282 85.9085 651.638 86.4898 653.188 86.4898C654.738 86.4898 656.095 85.9085 657.257 84.7459C658.42 83.5833 659.001 82.227 659.001 80.6769C659.001 79.1267 658.42 77.7704 657.257 76.6078C656.095 75.4452 654.738 74.8639 653.188 74.8639C651.638 74.8639 650.282 75.4452 649.119 76.6078ZM651.154 117.008V226H655.223V117.008H651.154ZM598.374 216.118C597.212 217.281 596.63 218.637 596.63 220.187C596.63 221.737 597.212 223.094 598.374 224.256C599.537 225.419 600.893 226 602.443 226C603.993 226 605.35 225.419 606.512 224.256C607.675 223.094 608.256 221.737 608.256 220.187C608.256 218.637 607.675 217.281 606.512 216.118C605.35 214.956 603.993 214.374 602.443 214.374C600.893 214.374 599.537 214.956 598.374 216.118ZM690.396 171.359C690.396 163.608 691.849 156.245 694.755 149.269C697.662 142.294 701.634 136.287 706.672 131.249C711.904 126.018 717.91 121.949 724.692 119.042C731.474 115.942 738.837 114.392 746.781 114.392C754.532 114.392 761.895 115.942 768.87 119.042C775.846 121.949 781.852 126.018 786.89 131.249C792.122 136.287 796.191 142.294 799.098 149.269C802.198 156.245 803.748 163.608 803.748 171.359C803.748 179.303 802.198 186.666 799.098 193.448C796.191 200.23 792.122 206.236 786.89 211.468C781.852 216.506 775.846 220.478 768.87 223.384C761.895 226.291 754.532 227.744 746.781 227.744C738.837 227.744 731.474 226.291 724.692 223.384C717.91 220.478 711.904 216.506 706.672 211.468C701.634 206.236 697.662 200.23 694.755 193.448C691.849 186.666 690.396 179.303 690.396 171.359ZM694.465 171.359C694.465 178.722 695.821 185.6 698.534 191.995C701.246 198.195 704.928 203.717 709.578 208.561C714.422 213.212 719.945 216.893 726.145 219.606C732.539 222.319 739.418 223.675 746.781 223.675C753.95 223.675 760.732 222.319 767.126 219.606C773.521 216.893 779.14 213.212 783.984 208.561C788.828 203.717 792.606 198.195 795.319 191.995C798.032 185.6 799.388 178.722 799.388 171.359C799.388 164.189 798.032 157.408 795.319 151.013C792.606 144.619 788.828 139 783.984 134.156C779.14 129.312 773.521 125.533 767.126 122.821C760.732 120.108 753.95 118.752 746.781 118.752C739.418 118.752 732.539 120.108 726.145 122.821C719.945 125.533 714.422 129.312 709.578 134.156C704.928 139 701.246 144.619 698.534 151.013C695.821 157.408 694.465 164.189 694.465 171.359Z" fill="white"></path></svg> 